<svg version="1.2" xmlns="http://www.w3.org/2000/svg" viewBox="0 0 800 570" width="800" height="570">
	<title>219006-P152XQ-555-ai</title>
	<style>
		tspan { white-space:pre } 
		.s0 { fill: #000000 } 
		.s1 { fill: #d3d3d3 } 
		.s2 { fill: #ececec } 
		.s3 { fill: #e8a577 } 
		.s4 { fill: #eaeaea } 
		.s5 { fill: #d1d1d1 } 
		.s6 { fill: #b9b9b9 } 
		.s7 { fill: #cdcdcd } 
		.s8 { fill: #a9a9a9 } 
		.s9 { fill: #888888 } 
		.s10 { fill: #717171 } 
		.s11 { fill: #a0a0a0 } 
		.s12 { fill: #d7d7d7 } 
		.s13 { fill: #ffffff } 
		.s14 { fill: #f9a42d } 
		.s15 { fill: #8d8887 } 
		.s16 { fill: #bfbfbf } 
		.s17 { fill: #848484 } 
		.s18 { fill: #3f1715 } 
		.s19 { fill: #21120d } 
		.s20 { fill: #5b5b5b } 
		.s21 { fill: #939393 } 
		.s22 { fill: #454545 } 
		.s23 { fill: #909090 } 
		.s24 { fill: #424242 } 
		.s25 { fill: #7b7878 } 
		.s26 { fill: #7b7b7b } 
		.s27 { fill: #acacac } 
		.s28 { fill: #d6d6d6 } 
		.s29 { fill: #afafaf } 
		.s30 { fill: #e0e0e0 } 
		.s31 { fill: #9f9f9f } 
		.s32 { fill: #141414 } 
		.s33 { fill: #fafbed } 
	</style>
	<g id="OBJECTS">
		<g id="&lt;Group&gt;">
			<g id="&lt;Group&gt;">
				<g id="&lt;Group&gt;">
					<path id="&lt;Path&gt;" class="s0" d="m540.7 160.4c0 83.6-67.7 151.4-151.3 151.4-83.6 0-151.4-67.8-151.4-151.4 0-83.6 67.8-151.3 151.4-151.3 83.6 0 151.3 67.7 151.3 151.3z"/>
				</g>
				<g id="&lt;Group&gt;">
					<g id="&lt;Group&gt;">
						<g id="&lt;Group&gt;">
							<path id="&lt;Path&gt;" class="s1" d="m777.2 412.4l-34.8-0.1-51.4-0.1-104.8-0.2q0 0 0.1 0l105.2-58.4z"/>
						</g>
						<g id="&lt;Group&gt;">
							<path id="&lt;Path&gt;" class="s2" d="m777.2 412.4l-34.8-0.1c-10.3-19.6-40.4-30.7-48.7-36.1-10.5-6.9-2.2-22.6-2.2-22.6z"/>
						</g>
						<g id="&lt;Group&gt;">
							<path id="&lt;Path&gt;" class="s3" d="m691 412.2l-104.8-0.2q0 0 0.1 0c1.3-0.7 27.3-12.2 47.3-7.9 17.7 3.7 48.1 1.2 57.4 8.1z"/>
						</g>
					</g>
					<g id="&lt;Group&gt;">
						<g id="&lt;Group&gt;">
							<path id="&lt;Path&gt;" class="s4" d="m413.7 410.4l-71.1-0.1-105.3-0.3-214.5-0.5q0 0 0.2 0l215.3-119.5z"/>
						</g>
						<g id="&lt;Group&gt;">
							<path id="&lt;Path&gt;" class="s5" d="m413.7 412.4l-71.1-0.1c-21.1-40.2-82.6-62.9-99.8-74.1-21.4-14-4.5-46.2-4.5-46.2z"/>
						</g>
						<g id="&lt;Group&gt;">
							<path id="&lt;Path&gt;" class="s6" d="m237.3 412l-214.5-0.5q0 0 0.2 0c2.8-1.3 55.9-24.9 96.8-16.2 36.2 7.7 98.5 2.5 117.5 16.7z"/>
						</g>
					</g>
					<g id="&lt;Group&gt;">
						<g id="&lt;Group&gt;">
							<path id="&lt;Path&gt;" class="s7" d="m682.8 412.4l-49.6-0.1-73.2-0.2-149.2-0.3q0 0 0.1 0l149.8-83.2z"/>
						</g>
						<g id="&lt;Group&gt;">
							<path id="&lt;Path&gt;" class="s8" d="m682.8 412.4l-49.6-0.1c-14.6-27.9-57.4-43.7-69.4-51.5-14.8-9.7-3.1-32.2-3.1-32.2z"/>
						</g>
						<g id="&lt;Group&gt;">
							<path id="&lt;Path&gt;" class="s9" d="m560 412.1l-149.2-0.3q0 0 0.1 0c1.9-0.9 38.9-17.4 67.4-11.3 25.2 5.4 68.5 1.8 81.7 11.6z"/>
						</g>
					</g>
				</g>
				<g id="&lt;Group&gt;">
					<g id="&lt;Group&gt;">
						<path id="&lt;Path&gt;" class="s10" d="m666.2 289.5c-10.3 0.2-18.4 8.9-18.4 19.3v103.9h37.8v-104.4c0-10.6-8.7-19.1-19.4-18.8z"/>
					</g>
					<g id="&lt;Group&gt;">
						<path id="&lt;Path&gt;" class="s11" d="m665.7 289.4c-5.9 0-10.7 8.5-10.7 18.9v104.4h21.4v-104.4c0-10.4-4.8-18.9-10.7-18.9z"/>
					</g>
					<g id="&lt;Group&gt;">
						<path id="&lt;Path&gt;" class="s12" d="m664.7 285.4c-2.2 0-4 8.5-4 18.9v104.4h8v-104.4c0-10.4-1.8-18.9-4-18.9z"/>
					</g>
					<g id="&lt;Group&gt;">
						<g id="&lt;Group&gt;">
							<path id="&lt;Path&gt;" class="s13" d="m658 303.5l-2.5 2.2-0.5-4.6-0.5 4.6-2.4-2.2 2.3 3.7 0.6 1 0.7-1z"/>
						</g>
						<g id="&lt;Group&gt;">
							<path id="&lt;Path&gt;" class="s13" d="m679.4 303.5l-2.5 2.2-0.5-4.6-0.5 4.6-2.5-2.2 2.4 3.7 0.6 1 0.7-1z"/>
						</g>
						<g id="&lt;Group&gt;">
							<path id="&lt;Path&gt;" class="s13" d="m668.7 310.7l-2.5 2.2-0.5-4.7-0.5 4.7-2.4-2.2 2.3 3.6 0.6 1.1 0.7-1.1z"/>
						</g>
						<g id="&lt;Group&gt;">
							<path id="&lt;Path&gt;" class="s13" d="m668.7 328.5l-2.5 2.2-0.5-4.7-0.5 4.7-2.4-2.2 2.3 3.6 0.6 1.1 0.7-1.1z"/>
						</g>
						<g id="&lt;Group&gt;">
							<path id="&lt;Path&gt;" class="s14" d="m668.7 346.3l-2.5 2.2-0.5-4.7-0.5 4.7-2.4-2.2 2.3 3.6v0.1l0.6 1 0.7-1.1z"/>
							<path id="&lt;Path&gt; copy" class="s13" d="m668.7 346.3l-2.5 2.2-0.5-4.7-0.5 4.7-2.4-2.2 2.3 3.6v0.1l0.6 1 0.7-1.1z"/>
						</g>
						<g id="&lt;Group&gt;">
							<path id="&lt;Path&gt;" class="s13" d="m658 320.1l-2.5 2.1-0.5-4.6-0.5 4.6-2.4-2.1 2.3 3.6 0.6 1 0.7-1z"/>
						</g>
						<g id="&lt;Group&gt;">
							<path id="&lt;Path&gt;" class="s13" d="m679.4 320.1l-2.5 2.1-0.5-4.6-0.5 4.6-2.5-2.1 2.4 3.6 0.6 1 0.7-1z"/>
						</g>
						<g id="&lt;Group&gt;">
							<path id="&lt;Path&gt;" class="s13" d="m658 336.6l-2.5 2.2-0.5-4.7-0.5 4.7-2.4-2.2 2.3 3.6 0.6 1.1 0.7-1.1z"/>
						</g>
						<g id="&lt;Group&gt;">
							<path id="&lt;Path&gt;" class="s13" d="m679.4 336.6l-2.5 2.2-0.5-4.7-0.5 4.7-2.5-2.2 2.4 3.6 0.6 1.1 0.7-1.1z"/>
						</g>
					</g>
					<g id="&lt;Group&gt;">
						<g id="&lt;Group&gt;">
							<path id="&lt;Path&gt;" class="s7" d="m631.1 317.8v-6.6c0-4.3-3.2-8.1-7.5-8.4-4.5-0.2-8.3 3.4-8.3 7.9v12.8 2.7c0 7.2 5.8 13.1 13.1 13.1h2.7 17.3v-15.8h-11.7c-3.1 0-5.6-2.5-5.6-5.7z"/>
						</g>
						<g id="&lt;Group&gt;">
							<path id="&lt;Path&gt;" class="s15" d="m628.4 333.8c-4.2 0-7.6-3.4-7.6-7.6v-15.5c0-1.3 1.1-2.4 2.4-2.4 1.3 0.1 2.4 1.4 2.4 2.9v12c0 3.2 2.6 5.8 5.8 5.8h15.4v4.8z"/>
						</g>
						<g id="&lt;Group&gt;">
							<path id="&lt;Path&gt;" class="s13" d="m631.4 331.5l-2.4 2.1-0.5-4.6-0.5 4.6-2.5-2.1 2.3 3.6 0.6 1h0.1l0.6-1z"/>
						</g>
						<g id="&lt;Group&gt;">
							<path id="&lt;Path&gt;" class="s14" d="m623.8 320.1l-2.5 2.1-0.5-4.6-0.5 4.6-2.5-2.1 2.3 3.6 0.7 1 0.7-1z"/>
						</g>
						<g id="&lt;Group&gt;">
							<path id="&lt;Path&gt;" class="s13" d="m628.5 309.9l-2.5 2.2-0.5-4.6-0.5 4.6-2.5-2.2 2.3 3.7 0.7 1 0.6-1z"/>
						</g>
						<g id="&lt;Group&gt;">
							<path id="&lt;Path&gt;" class="s14" d="m642.9 331.5l-2.5 2.1-0.5-4.6-0.5 4.6-2.4-2.1 2.3 3.6 0.6 1 0.7-1z"/>
						</g>
					</g>
					<g id="&lt;Group&gt;">
						<g id="&lt;Group&gt;">
							<path id="&lt;Path&gt;" class="s16" d="m702 350.6v-6.7c0-4.3 3.2-8.1 7.5-8.3 4.5-0.2 8.3 3.4 8.3 7.9v12.7 2.8c0 7.2-5.9 13-13.1 13h-2.7-17.4v-15.8h11.7c3.2 0 5.7-2.5 5.7-5.6z"/>
						</g>
						<g id="&lt;Group&gt;">
							<path id="&lt;Path&gt;" class="s17" d="m704.7 366.5c4.2 0 7.6-3.4 7.6-7.5v-15.5c0-1.4-1.1-2.4-2.4-2.4-1.4 0-2.4 1.3-2.4 2.8v12c0 3.2-2.6 5.8-5.8 5.8h-17.1v4.8z"/>
						</g>
						<g id="&lt;Group&gt;">
							<path id="&lt;Path&gt;" class="s14" d="m701.6 364.2l2.5 2.2 0.5-4.7 0.5 4.7 2.5-2.2-2.3 3.6-0.7 1.1-0.7-1.1z"/>
						</g>
						<g id="&lt;Group&gt;">
							<path id="&lt;Path&gt;" class="s14" d="m709.3 352.8l2.5 2.2 0.5-4.7 0.5 4.7 2.4-2.2-2.3 3.7-0.6 1-0.7-1z"/>
						</g>
						<g id="&lt;Group&gt;">
							<path id="&lt;Path&gt;" class="s14" d="m704.6 342.7l2.5 2.1 0.5-4.6 0.5 4.7 2.4-2.2-2.3 3.6-0.6 1.1-0.7-1.1z"/>
						</g>
						<g id="&lt;Group&gt;">
							<path id="&lt;Path&gt;" class="s14" d="m690.2 364.2l2.4 2.2 0.5-4.7 0.5 4.7 2.5-2.2-2.3 3.6-0.7 1.1-0.6-1.1z"/>
						</g>
					</g>
					<g id="&lt;Group&gt;">
						<g id="&lt;Group&gt;">
							<path id="&lt;Path&gt;" class="s13" d="m658 355.4l-2.5 2.2-0.5-4.6-0.5 4.6-2.4-2.2 2.3 3.7 0.6 1 0.7-1z"/>
						</g>
						<g id="&lt;Group&gt;">
							<path id="&lt;Path&gt;" class="s13" d="m679.4 355.4l-2.5 2.2-0.5-4.6-0.5 4.6-2.5-2.2 2.4 3.7 0.6 1 0.7-1z"/>
						</g>
						<g id="&lt;Group&gt;">
							<path id="&lt;Path&gt;" class="s13" d="m668.7 362.6l-2.5 2.1-0.5-4.6-0.5 4.6-2.4-2.1 2.3 3.6 0.6 1.1v-0.1 0.1l0.7-1.1z"/>
						</g>
						<g id="&lt;Group&gt;">
							<path id="&lt;Path&gt;" class="s14" d="m668.7 380.4l-2.5 2.2-0.5-4.7-0.5 4.7-2.4-2.2 2.3 3.6 0.6 1.1 0.7-1.1z"/>
						</g>
						<g id="&lt;Group&gt;">
							<path id="&lt;Path&gt;" class="s14" d="m668.7 398.2l-2.5 2.2-0.5-4.7-0.5 4.7-2.4-2.2 2.3 3.6 0.6 1.1 0.7-1.1z"/>
						</g>
						<g id="&lt;Group&gt;">
							<path id="&lt;Path&gt;" class="s14" d="m658 372l-2.5 2.1-0.5-4.6-0.5 4.6-2.4-2.1 2.3 3.6 0.6 1 0.7-1z"/>
						</g>
						<g id="&lt;Group&gt;">
							<path id="&lt;Path&gt;" class="s14" d="m679.4 372l-2.5 2.1-0.5-4.6-0.5 4.6-2.5-2.1 2.4 3.6 0.6 1 0.7-1z"/>
						</g>
						<g id="&lt;Group&gt;">
							<path id="&lt;Path&gt;" class="s14" d="m658 388.5l-2.5 2.1-0.5-4.6-0.5 4.7-2.4-2.2 2.3 3.6 0.6 1.1 0.7-1.1z"/>
						</g>
						<g id="&lt;Group&gt;">
							<path id="&lt;Path&gt;" class="s14" d="m679.4 388.5l-2.5 2.1-0.5-4.6-0.5 4.7-2.5-2.2 2.4 3.6 0.6 1.1 0.7-1.1z"/>
						</g>
					</g>
					<g id="&lt;Group&gt;">
						<g id="&lt;Group&gt;">
							<path id="&lt;Path&gt;" class="s18" d="m667.4 283c0 0 0.4-5.9-1.7-9.8-2 3.9-1.7 9.8-1.7 9.8z"/>
						</g>
						<g id="&lt;Group&gt;">
							<path id="&lt;Path&gt;" class="s19" d="m668 281.1q-0.8 1.3-1.6 1.3h-0.7-0.7q-0.8 0-1.6-1.3l-2.5-4.2 1.6 7.2c0.8 3.9 2 6.1 3.2 6.1 1.2 0 2.4-2.2 3.3-6.1l1.6-7.2z"/>
						</g>
						<g id="&lt;Group&gt;">
							<path id="&lt;Path&gt;" class="s18" d="m669.2 282.5q-1.2 1-2.4 1h-1.1-1.1q-1.2 0-2.4-1l-3.9-3.6 2.4 6.1c1.4 3.3 3.2 5.2 5 5.2 1.9 0 3.7-1.9 5-5.2l2.4-6.1z"/>
						</g>
						<g id="&lt;Group&gt;">
							<path id="&lt;Path&gt;" class="s19" d="m670.8 283.8q-1.7 0.8-3.5 0.8h-1.6-1.6q-1.8 0-3.5-0.8l-5.7-3 3.5 5.1c2 2.8 4.6 4.3 7.3 4.3 2.8 0 5.4-1.5 7.3-4.3l3.6-5.1z"/>
						</g>
					</g>
					<g id="&lt;Group&gt;">
						<g id="&lt;Group&gt;">
							<path id="&lt;Path&gt;" class="s18" d="m623.6 299.8c0 0 0.2-3.7-1.1-6.2-1.3 2.5-1.1 6.2-1.1 6.2z"/>
						</g>
						<g id="&lt;Group&gt;">
							<path id="&lt;Path&gt;" class="s19" d="m624 298.6q-0.5 0.8-1 0.8h-0.5-0.4q-0.6 0-1-0.8l-1.7-2.6 1 4.5c0.6 2.5 1.3 3.9 2.1 3.9 0.8 0 1.5-1.4 2.1-3.9l1-4.5z"/>
						</g>
						<g id="&lt;Group&gt;">
							<path id="&lt;Path&gt;" class="s18" d="m624.7 299.5q-0.7 0.7-1.5 0.7h-0.7-0.7q-0.8 0-1.5-0.7l-2.5-2.3 1.5 3.9c0.9 2.1 2 3.3 3.2 3.3 1.2 0 2.3-1.2 3.2-3.3l1.5-3.9z"/>
						</g>
						<g id="&lt;Group&gt;">
							<path id="&lt;Path&gt;" class="s19" d="m625.8 300.3q-1.1 0.6-2.3 0.6h-1-1q-1.2 0-2.2-0.6l-3.7-1.9 2.3 3.3c1.2 1.7 2.9 2.7 4.6 2.7 1.8 0 3.4-1 4.7-2.7l2.2-3.3z"/>
						</g>
					</g>
					<g id="&lt;Group&gt;">
						<g id="&lt;Group&gt;">
							<path id="&lt;Path&gt;" class="s18" d="m711.2 331c0 0 0.3-5-1.4-8.2-1.7 3.2-1.4 8.2-1.4 8.2z"/>
						</g>
						<g id="&lt;Group&gt;">
							<path id="&lt;Path&gt;" class="s19" d="m711.7 329.4q-0.6 1-1.3 1h-0.6-0.6q-0.6 0-1.3-1l-2.1-3.5 1.3 5.9c0.7 3.3 1.7 5.1 2.7 5.1 1 0 2-1.8 2.7-5.1l1.3-5.9z"/>
						</g>
						<g id="&lt;Group&gt;">
							<path id="&lt;Path&gt;" class="s18" d="m712.7 330.5q-1 0.9-2 0.9h-0.9-0.9q-1 0-2-0.9l-3.2-3 2 5.1c1.1 2.7 2.6 4.3 4.1 4.3 1.5 0 3-1.6 4.1-4.3l2-5.1z"/>
						</g>
						<g id="&lt;Group&gt;">
							<path id="&lt;Path&gt;" class="s19" d="m714 331.6q-1.4 0.7-2.9 0.7h-1.3-1.3q-1.5 0-2.9-0.7l-4.7-2.5 2.9 4.2c1.6 2.3 3.7 3.6 6 3.6 2.3 0 4.4-1.3 6-3.6l2.9-4.2z"/>
						</g>
					</g>
				</g>
				<g id="&lt;Group&gt;">
					<g id="&lt;Group&gt;">
						<g id="&lt;Group&gt;">
							<path id="&lt;Compound Path&gt;" class="s20" d="m455.2 222.8l-58.6-16.7-7.2 38.9 20.8 11.7 6.4 31.4 0.1 49.9 7.4 40-27-4.6-0.9 9.6-4.5 37.2 5.4 6.9 55-26.4 20.1-65.6 4.1-43.7z"/>
						</g>
						<path id="&lt;Path&gt;" class="s21" d="m363.1 288.1l6.3 49.9 5.4 37.1 18.5 8.7 6.8 38.3-50.7-28.2-25.5-58.8-0.2-43.7 18.4-65.4 49.4-16.6 4.6 33.8-11.9 13.7z"/>
					</g>
					<g id="&lt;Group&gt;">
						<g id="&lt;Group&gt;">
							<g id="&lt;Group&gt;">
								<path id="&lt;Compound Path&gt;" fill-rule="evenodd" class="s22" d="m275 339.4l30.5-3 7.2 40.8-30.8-5.3 6 48.7-47.9-7.2-3.7-39.6-79.5-2.6 0.8-25.9 28.7-42.8 22.1-48.3 26.9-45.3 1.3 1.3 49.5-1.9 6.4 65zm-89-2.5l50.9-0.5-6.4-50.2zm44.5-50.7l5.2-6-2.5-10.7-4.6 2.4z"/>
							</g>
							<path id="&lt;Path&gt;" class="s23" d="m308 333l-5.7 33.2-71.4 6.6-77 6.1-1.9-35.4 26.3-46.2 24-47.2 35.6-42.9-4.4 63.7-39.9 65.9 57.7 7.2z"/>
						</g>
						<g id="&lt;Group&gt;">
							<g id="&lt;Group&gt;">
								<path id="&lt;Compound Path&gt;" fill-rule="evenodd" class="s24" d="m610.3 339.4l30.4-3 7.3 40.8-30.8-5.3 6 48.7-47.9-7.2-3.7-39.6-79.5-2.6 0.8-25.9 28.7-42.8 22.1-48.3 26.9-45.3 1.3 1.3 49.5-1.9 6.4 65zm-89.1-2.5l51-0.5-6.4-50.2zm44.5-50.7l5.2-6-2.5-10.7-4.6 2.4z"/>
							</g>
							<path id="&lt;Path&gt;" class="s25" d="m643.3 333l-5.7 33.2-71.4 6.6-77 6.1-1.9-35.4 26.3-46.2 24-47.2 35.6-42.9-4.4 63.7-39.9 65.9 57.7 7.2z"/>
						</g>
					</g>
				</g>
				<g id="&lt;Group&gt;">
					<g id="&lt;Group&gt;">
						<path id="&lt;Path&gt;" class="s26" d="m129.4 211.4c-12.8 0.4-22.8 11.2-22.8 24v200.4h46.9v-200.9c0-13.2-10.8-23.8-24.1-23.5z"/>
					</g>
					<g id="&lt;Group&gt;">
						<path id="&lt;Path&gt;" class="s27" d="m130 212.4c-7.3 0-13.3 10.5-13.3 23.5v200.9h26.7v-200.9c0-13-6-23.5-13.4-23.5z"/>
					</g>
					<g id="&lt;Group&gt;">
						<path id="&lt;Path&gt;" class="s28" d="m130 211.4c-2.7 0-5 10.5-5 23.5v200.9h10v-200.9c0-13-2.2-23.5-5-23.5z"/>
					</g>
					<g id="&lt;Group&gt;">
						<g id="&lt;Group&gt;">
							<path id="&lt;Path&gt;" class="s14" d="m120.5 228.9l-3.1 2.7-0.6-5.7-0.7 5.7-3-2.7 2.9 4.6 0.8 1.2 0.8-1.2v-0.1z"/>
						</g>
						<g id="&lt;Group&gt;">
							<path id="&lt;Path&gt;" class="s14" d="m147 228.9l-3.1 2.7-0.6-5.7-0.6 5.7-3.1-2.7 2.9 4.6 0.8 1.2 0.8-1.2v-0.1z"/>
						</g>
						<g id="&lt;Group&gt;">
							<path id="&lt;Path&gt;" class="s14" d="m133.7 237.8l-3 2.7-0.7-5.8-0.6 5.8-3-2.7 2.8 4.5 0.8 1.3 0.9-1.3z"/>
						</g>
						<g id="&lt;Group&gt;">
							<path id="&lt;Path&gt;" class="s14" d="m133.7 259.9l-3 2.7-0.7-5.8-0.6 5.8-3-2.7 2.8 4.5 0.8 1.3 0.9-1.3z"/>
						</g>
						<g id="&lt;Group&gt;">
							<path id="&lt;Path&gt;" class="s14" d="m133.7 282l-3 2.7-0.7-5.7-0.6 5.7-3-2.7 2.8 4.6 0.8 1.2 0.9-1.2v-0.1z"/>
						</g>
						<g id="&lt;Group&gt;">
							<path id="&lt;Path&gt;" class="s14" d="m120.5 249.5l-3.1 2.6-0.6-5.7-0.7 5.7-3-2.6 2.9 4.5 0.8 1.3v-0.1 0.1l0.8-1.3z"/>
						</g>
						<g id="&lt;Group&gt;">
							<path id="&lt;Path&gt;" class="s14" d="m147 249.5l-3.1 2.6-0.6-5.7-0.6 5.7-3.1-2.6 2.9 4.5 0.8 1.3v-0.1 0.1l0.8-1.3z"/>
						</g>
						<g id="&lt;Group&gt;">
							<path id="&lt;Path&gt;" class="s14" d="m120.5 270l-3.1 2.7-0.6-5.8-0.7 5.8-3-2.7 2.9 4.5 0.8 1.3 0.8-1.3z"/>
						</g>
						<g id="&lt;Group&gt;">
							<path id="&lt;Path&gt;" class="s14" d="m147 270l-3.1 2.7-0.6-5.8-0.6 5.8-3.1-2.7 2.9 4.5 0.8 1.3 0.8-1.3z"/>
						</g>
					</g>
					<g id="&lt;Group&gt;">
						<g id="&lt;Group&gt;">
							<path id="&lt;Path&gt;" class="s29" d="m87 246.7v-8.3c0-5.3-4-10.1-9.2-10.3-5.7-0.3-10.4 4.2-10.4 9.7v15.9 3.4c0 8.9 7.3 16.2 16.2 16.2h3.4 21.6v-19.6h-14.5c-3.9 0-7.1-3.1-7.1-7z"/>
						</g>
						<g id="&lt;Group&gt;">
							<path id="&lt;Path&gt;" class="s30" d="m84.6 266.5c-5.1 0-9.3-4.2-9.3-9.4v-19.3c0-1.6 1.3-2.9 2.9-2.9 1.7 0.1 3 1.7 3 3.5v14.9c0 4 3.2 7.2 7.2 7.2h19.2v6z"/>
						</g>
						<g id="&lt;Group&gt;">
							<path id="&lt;Path&gt;" class="s14" d="m87.5 263.6l-3.1 2.7-0.6-5.8-0.7 5.8-3-2.7 2.8 4.5 0.9 1.3 0.8-1.3z"/>
						</g>
						<g id="&lt;Group&gt;">
							<path id="&lt;Path&gt;" class="s14" d="m77.9 249.5l-3 2.6-0.6-5.7-0.7 5.7-3-2.6 2.8 4.5 0.9 1.3v-0.1 0.1l0.8-1.3z"/>
						</g>
						<g id="&lt;Group&gt;">
							<path id="&lt;Path&gt;" class="s14" d="m83.8 236.9l-3.1 2.7-0.6-5.8-0.6 5.8-3.1-2.7 2.9 4.5 0.8 1.3 0.8-1.3z"/>
						</g>
						<g id="&lt;Group&gt;">
							<path id="&lt;Path&gt;" class="s14" d="m101.7 263.6l-3.1 2.7-0.6-5.8-0.6 5.8-3.1-2.7 2.9 4.5 0.8 1.3 0.8-1.3z"/>
						</g>
					</g>
					<g id="&lt;Group&gt;">
						<g id="&lt;Group&gt;">
							<path id="&lt;Path&gt;" class="s31" d="m175.1 356.2v-8.3c0-5.3 3.9-10.1 9.2-10.3 5.7-0.3 10.3 4.2 10.3 9.7v15.9 3.4c0 8.9-7.2 16.2-16.2 16.2h-3.3-21.6v-19.6h14.5c3.9 0 7.1-3.1 7.1-7z"/>
						</g>
						<g id="&lt;Group&gt;">
							<path id="&lt;Path&gt;" class="s7" d="m178.4 376c5.2 0 9.4-4.2 9.4-9.4v-19.3c0-1.6-1.3-2.9-2.9-2.9-1.7 0.1-3 1.7-3 3.5v14.9c0 4-3.2 7.2-7.2 7.2h-21.2v6z"/>
						</g>
						<g id="&lt;Group&gt;">
							<path id="&lt;Path&gt;" class="s14" d="m174.6 373.1l3.1 2.7 0.6-5.8 0.6 5.8 3.1-2.7-2.9 4.5-0.8 1.3-0.8-1.3z"/>
						</g>
						<g id="&lt;Group&gt;">
							<path id="&lt;Path&gt;" class="s14" d="m184.1 359l3.1 2.6 0.6-5.7 0.6 5.8 3.1-2.7-2.9 4.5-0.8 1.3-0.8-1.3z"/>
						</g>
						<g id="&lt;Group&gt;">
							<path id="&lt;Path&gt;" class="s14" d="m178.3 346.4l3.1 2.7 0.6-5.8 0.6 5.8 3.1-2.7-2.9 4.5-0.8 1.3-0.8-1.3z"/>
						</g>
						<g id="&lt;Group&gt;">
							<path id="&lt;Path&gt;" class="s14" d="m160.4 373.1l3 2.7 0.7-5.8 0.6 5.8 3-2.7-2.8 4.5-0.8 1.3-0.9-1.3z"/>
						</g>
					</g>
					<g id="&lt;Group&gt;">
						<g id="&lt;Group&gt;">
							<path id="&lt;Path&gt;" class="s14" d="m120.5 293.4l-3.1 2.6-0.6-5.7-0.7 5.7-3-2.6 2.9 4.5 0.8 1.3v-0.1 0.1l0.8-1.3z"/>
						</g>
						<g id="&lt;Group&gt;">
							<path id="&lt;Path&gt;" class="s14" d="m147 293.4l-3.1 2.6-0.6-5.7-0.6 5.7-3.1-2.6 2.9 4.5 0.8 1.3v-0.1 0.1l0.8-1.3z"/>
						</g>
						<g id="&lt;Group&gt;">
							<path id="&lt;Path&gt;" class="s14" d="m133.7 302.2l-3 2.7-0.7-5.7-0.6 5.7-3-2.7 2.8 4.6 0.8 1.2 0.9-1.2v-0.1z"/>
						</g>
						<g id="&lt;Group&gt;">
							<path id="&lt;Path&gt;" class="s14" d="m133.7 324.3l-3 2.7-0.7-5.7-0.6 5.7-3-2.7 2.8 4.6 0.8 1.2 0.9-1.2z"/>
						</g>
						<g id="&lt;Group&gt;">
							<path id="&lt;Path&gt;" class="s14" d="m133.7 346.5l-3 2.6-0.7-5.7-0.6 5.7-3-2.6 2.8 4.5 0.8 1.3v-0.1 0.1l0.9-1.3z"/>
						</g>
						<g id="&lt;Group&gt;">
							<path id="&lt;Path&gt;" class="s14" d="m120.5 313.9l-3.1 2.7-0.6-5.8-0.7 5.8-3-2.7 2.9 4.5 0.8 1.3 0.8-1.3z"/>
						</g>
						<g id="&lt;Group&gt;">
							<path id="&lt;Path&gt;" class="s14" d="m147 313.9l-3.1 2.7-0.6-5.8-0.6 5.8-3.1-2.7 2.9 4.5 0.8 1.3 0.8-1.3z"/>
						</g>
						<g id="&lt;Group&gt;">
							<path id="&lt;Path&gt;" class="s14" d="m120.5 334.4l-3.1 2.7-0.6-5.8-0.7 5.8-3-2.7 2.9 4.5 0.8 1.3 0.8-1.3z"/>
						</g>
						<g id="&lt;Group&gt;">
							<path id="&lt;Path&gt;" class="s14" d="m147 334.4l-3.1 2.7-0.6-5.8-0.6 5.8-3.1-2.7 2.9 4.5 0.8 1.3 0.8-1.3z"/>
						</g>
					</g>
					<g id="&lt;Group&gt;">
						<g id="&lt;Group&gt;">
							<path id="&lt;Path&gt;" class="s14" d="m120.5 359l-3.1 2.7-0.6-5.7-0.7 5.7-3-2.7 2.9 4.6 0.8 1.2 0.8-1.2z"/>
						</g>
						<g id="&lt;Group&gt;">
							<path id="&lt;Path&gt;" class="s14" d="m147 359l-3.1 2.7-0.6-5.7-0.6 5.7-3.1-2.7 2.9 4.6 0.8 1.2 0.8-1.2z"/>
						</g>
						<g id="&lt;Group&gt;">
							<path id="&lt;Path&gt;" class="s14" d="m133.7 367.9l-3 2.7-0.7-5.8-0.6 5.8-3-2.7 2.8 4.5 0.8 1.3 0.9-1.3z"/>
						</g>
						<g id="&lt;Group&gt;">
							<path id="&lt;Path&gt;" class="s14" d="m133.7 390l-3 2.7-0.7-5.7-0.6 5.7-3-2.7 2.8 4.5v0.1l0.8 1.2 0.9-1.3z"/>
						</g>
						<g id="&lt;Group&gt;">
							<path id="&lt;Path&gt;" class="s14" d="m133.7 412.1l-3 2.7-0.7-5.7-0.6 5.7-3-2.7 2.8 4.6 0.8 1.2 0.9-1.2v-0.1z"/>
						</g>
						<g id="&lt;Group&gt;">
							<path id="&lt;Path&gt;" class="s14" d="m120.5 379.6l-3.1 2.6-0.6-5.7-0.7 5.8-3-2.7 2.9 4.5 0.8 1.3 0.8-1.3z"/>
						</g>
						<g id="&lt;Group&gt;">
							<path id="&lt;Path&gt;" class="s14" d="m147 379.6l-3.1 2.6-0.6-5.7-0.6 5.8-3.1-2.7 2.9 4.5 0.8 1.3 0.8-1.3z"/>
						</g>
						<g id="&lt;Group&gt;">
							<path id="&lt;Path&gt;" class="s14" d="m120.5 400.1l-3.1 2.7-0.6-5.8-0.7 5.8-3-2.7 2.9 4.5 0.8 1.3 0.8-1.3z"/>
						</g>
						<g id="&lt;Group&gt;">
							<path id="&lt;Path&gt;" class="s14" d="m147 400.1l-3.1 2.7-0.6-5.8-0.6 5.8-3.1-2.7 2.9 4.5 0.8 1.3 0.8-1.3z"/>
						</g>
					</g>
					<g id="&lt;Group&gt;">
						<g id="&lt;Group&gt;">
							<path id="&lt;Path&gt;" class="s18" d="m132.1 203.5c0 0 0.5-7.4-2.1-12.3-2.5 4.9-2 12.3-2 12.3z"/>
						</g>
						<g id="&lt;Group&gt;">
							<path id="&lt;Path&gt;" class="s19" d="m132.9 201.1q-1 1.5-2 1.5h-0.9-0.8q-1 0-2-1.5l-3.2-5.2 2 8.9c1.1 4.9 2.5 7.6 4 7.6 1.6 0 3-2.7 4.1-7.6l1.9-8.9z"/>
						</g>
						<g id="&lt;Group&gt;">
							<path id="&lt;Path&gt;" class="s18" d="m134.4 202.8q-1.5 1.3-3 1.3h-1.4-1.3q-1.5 0-3-1.3l-4.9-4.5 3 7.6c1.7 4.2 3.9 6.5 6.2 6.5 2.4 0 4.6-2.3 6.2-6.5l3-7.6z"/>
						</g>
						<g id="&lt;Group&gt;">
							<path id="&lt;Path&gt;" class="s19" d="m136.4 204.4c-1.4 0.7-2.9 1.1-4.4 1.1h-2-1.9c-1.5 0-3-0.4-4.4-1.1l-7.1-3.7 4.4 6.3c2.4 3.5 5.6 5.4 9 5.4 3.4 0 6.7-1.9 9.1-5.4l4.4-6.3z"/>
						</g>
					</g>
					<g id="&lt;Group&gt;">
						<g id="&lt;Group&gt;">
							<path id="&lt;Path&gt;" class="s18" d="m77.7 224.3c0 0 0.3-4.7-1.3-7.8-1.6 3.1-1.3 7.8-1.3 7.8z"/>
						</g>
						<g id="&lt;Group&gt;">
							<path id="&lt;Path&gt;" class="s19" d="m78.2 222.8q-0.6 1-1.2 1h-0.6-0.6q-0.6 0-1.2-1l-2-3.3 1.2 5.7c0.7 3.1 1.6 4.8 2.6 4.8 1 0 1.9-1.7 2.6-4.8l1.2-5.7z"/>
						</g>
						<g id="&lt;Group&gt;">
							<path id="&lt;Path&gt;" class="s18" d="m79.1 223.9q-0.9 0.8-1.9 0.8h-0.8-0.9q-0.9 0-1.9-0.8l-3.1-2.8 2 4.8c1 2.6 2.4 4.1 3.9 4.1 1.5 0 2.9-1.5 3.9-4.1l1.9-4.8z"/>
						</g>
						<g id="&lt;Group&gt;">
							<path id="&lt;Path&gt;" class="s19" d="m80.4 224.9q-1.3 0.7-2.8 0.7h-1.2-1.3q-1.4 0-2.7-0.7l-4.6-2.3 2.8 4c1.6 2.2 3.6 3.4 5.8 3.4 2.2 0 4.2-1.2 5.8-3.4l2.8-4z"/>
						</g>
					</g>
					<g id="&lt;Group&gt;">
						<g id="&lt;Group&gt;">
							<path id="&lt;Path&gt;" class="s18" d="m186.5 331.8c0 0 0.4-6.1-1.7-10.1-2.1 4-1.7 10.1-1.7 10.1z"/>
						</g>
						<g id="&lt;Group&gt;">
							<path id="&lt;Path&gt;" class="s19" d="m187.1 329.9q-0.8 1.2-1.6 1.2h-0.7-0.8q-0.8 0-1.6-1.2l-2.6-4.3 1.6 7.3c0.9 4 2.1 6.3 3.4 6.3 1.2 0 2.4-2.3 3.3-6.3l1.6-7.3z"/>
						</g>
						<g id="&lt;Group&gt;">
							<path id="&lt;Path&gt;" class="s18" d="m188.3 331.2q-1.2 1.1-2.4 1.1h-1.1-1.1q-1.3 0-2.5-1.1l-4-3.6 2.5 6.2c1.3 3.4 3.2 5.4 5.1 5.4 1.9 0 3.7-2 5.1-5.4l2.4-6.2z"/>
						</g>
						<g id="&lt;Group&gt;">
							<path id="&lt;Path&gt;" class="s19" d="m190 332.6q-1.8 0.9-3.6 0.9h-1.6-1.7q-1.8 0-3.6-0.9l-5.8-3.1 3.6 5.2c2 2.9 4.7 4.5 7.5 4.5 2.8 0 5.5-1.6 7.4-4.5l3.7-5.2z"/>
						</g>
					</g>
				</g>
				<g id="&lt;Group&gt;">
					<g id="&lt;Group&gt;">
						<path id="&lt;Path&gt;" class="s32" d="m751.4 409.1c-1.3 0-24.3 35.1-26.6 38.4-11.8 16.9-35.2 19.5-53.2 29.4-13.7 7.6-24.5 19.7-33 32.8-11.2 17.3-20.4 38.2-39.2 46.7-15.1 6.9-33 3.8-48.3-2.6-25.4-10.8-44-23.4-72.1-27-26.8-3.4-54.6 0.3-79.5 11-24.8 10.8-50.5 28.7-76.4 20.9-32.9-9.8-46.3-56.1-80.2-61.3-24.4-3.8-46.4 16.3-71 18.1-24 1.7-45.9-14.2-61.2-32.7-15.3-18.5-26.4-40.4-43-57.8-6-6.3-12.4-11.5-19.1-15.9 0 0 699.7 0 702.8 0z"/>
					</g>
					<g id="&lt;Group&gt;">
						<path id="&lt;Path&gt;" class="s0" d="m751.4 409.1c-1.3 0-24.3 35.1-26.6 38.5-11.8 16.8-35.2 19.4-53.2 29.3-13.7 7.6-24.5 19.7-33 32.8-11.2 17.3-20.4 38.2-39.2 46.7-15.1 6.9-33 3.8-48.3-2.6-25.4-10.8-44-23.4-72.1-27-26.8-3.4-54.6 0.2-79.5 11-24.8 10.8-50.5 28.7-76.4 20.9-32.9-9.8-46.3-56.1-80.2-61.3-24.4-3.8-46.4 16.3-71 18.1-24 1.7-45.9-14.2-61.2-32.7-15.3-18.5-26.4-40.4-43-57.8-6-6.3-12.4-11.5-19.1-15.9 0 0 18.8 0 50.4 0 3.7 5.3 7.6 10.6 11.7 15.7 15.3 18.5 37.2 34.4 61.2 32.6 24.6-1.8 46.6-21.8 71-18 33.9 5.2 47.3 51.5 80.2 61.3 25.9 7.7 51.6-10.2 76.4-20.9 24.9-10.8 52.7-14.5 79.5-11 28.1 3.6 46.7 16.2 72.1 26.9 15.3 6.5 33.2 9.5 48.3 2.7 18.8-8.6 28-29.4 39.2-46.8 8.5-13.1 19.3-25.2 33-32.7 7.2-4 15.3-6.8 23.2-9.8z"/>
					</g>
				</g>
				<g id="&lt;Group&gt;">
					<g id="&lt;Group&gt;">
						<g id="&lt;Group&gt;">
							<g id="&lt;Group&gt;">
								<path id="&lt;Path&gt;" class="s33" d="m410.5 91.6h143.9c-0.5-13.9-11.9-24.9-25.9-24.9-5.8-13-18.8-22.1-33.9-22.1-18.2 0-33.3 13.1-36.5 30.4q-0.9-0.1-2-0.1c-5.8 0-11 2.8-14.3 7.2q-1.6-0.5-3.4-0.5c-4.3 0-8.1 1.9-10.7 4.8-1.8-1-3.8-1.5-5.9-1.5-4.9 0-9.1 2.7-11.3 6.7z"/>
								<path id="&lt;Path&gt;" class="s33" d="m585.7 93.6h-193.1c-0.7 0-1.3-0.5-1.3-1.2 0-0.8 0.6-1.3 1.3-1.3h193.1c0.7 0 1.3 0.5 1.3 1.3 0 0.7-0.6 1.2-1.3 1.2z"/>
								<path id="&lt;Path&gt;" class="s33" d="m443.3 100.9h-70.8c-0.7 0-1.3-0.6-1.3-1.3 0-0.7 0.6-1.3 1.3-1.3h70.8c0.7 0 1.3 0.6 1.3 1.3 0 0.7-0.6 1.3-1.3 1.3z"/>
								<path id="&lt;Path&gt;" class="s33" d="m526.1 100.9h-38.8c-0.8 0-1.3-0.6-1.3-1.3 0-0.7 0.5-1.3 1.3-1.3h38.8c0.8 0 1.3 0.6 1.3 1.3 0 0.7-0.5 1.3-1.3 1.3z"/>
							</g>
						</g>
						<g id="&lt;Group&gt;">
							<g id="&lt;Group&gt;">
								<path id="&lt;Path&gt;" class="s33" d="m341 165.4h-121.3c0.5-11.7 10.1-21 21.9-21 4.9-11 15.8-18.6 28.6-18.6 15.3 0 28 11 30.7 25.6q0.8-0.1 1.7-0.1c4.9 0 9.3 2.4 12 6q1.4-0.3 2.9-0.3c3.6 0 6.8 1.5 9 4 1.5-0.8 3.2-1.3 5-1.3 4.1 0 7.7 2.3 9.5 5.7z"/>
								<path id="&lt;Path&gt;" class="s33" d="m193.4 167.1h162.7c0.6 0 1.1-0.5 1.1-1.1 0-0.6-0.5-1.1-1.1-1.1h-162.7c-0.6 0-1.1 0.5-1.1 1.1 0 0.6 0.5 1.1 1.1 1.1z"/>
								<path id="&lt;Path&gt;" class="s33" d="m313.4 173.2h59.6c0.6 0 1.1-0.5 1.1-1.1 0-0.6-0.5-1.1-1.1-1.1h-59.6c-0.6 0-1.1 0.5-1.1 1.1 0 0.6 0.5 1.1 1.1 1.1z"/>
								<path id="&lt;Path&gt;" class="s33" d="m243.6 173.2h32.7c0.6 0 1.1-0.5 1.1-1.1 0-0.6-0.5-1.1-1.1-1.1h-32.7c-0.6 0-1.1 0.5-1.1 1.1 0 0.6 0.5 1.1 1.1 1.1z"/>
							</g>
						</g>
					</g>
				</g>
			</g>
		</g>
	</g>
</svg>