<svg version="1.2" xmlns="http://www.w3.org/2000/svg" viewBox="0 0 850 500" width="850" height="500">
	<title>273799-P5XL30-292-ai</title>
	<defs>
		<radialGradient id="g1" cx="419.1" cy="293" r="924.2" gradientUnits="userSpaceOnUse">
			<stop offset="0" stop-color="#ffffff"/>
			<stop offset=".962" stop-color="#bcbec0"/>
		</radialGradient>
		<clipPath clipPathUnits="userSpaceOnUse" id="cp1">
			<path d="m174.13 143.64c-3.54-3.17-8.19-4.88-12.92-4.51q-0.11 0-0.22 0.01c-7.49 0.62-9.79-10.77 0.14-13.12 9.94-2.35 21.54 3.03 24.47 11.07 2.56 7.03-4.6 12.72-11.47 6.55z"/>
		</clipPath>
	</defs>
	<style>
		tspan { white-space:pre } 
		.s0 { opacity: .2;fill: url(#g1) } 
		.s1 { opacity: .4;mix-blend-mode: multiply;fill: #b7b7b7 } 
		.t2 { font-size: 116px;fill: #c66d1e;font-weight: bold;font-family: "Nexa Bold" } 
		.t3 { font-size: 24px;fill: #666666;font-weight: 300;font-family: "Poppins-Light", "Poppins" } 
		.t4 { font-size: 24px;fill: #666666;font-family: "Poppins" } 
		.s5 { fill: #e02828 } 
		.s6 { fill: #d67c22 } 
		.s7 { fill: #e28e33 } 
		.s8 { fill: #e89442 } 
		.s9 { fill: #ef9c56 } 
		.s10 { fill: #ed3e3e } 
		.s11 { fill: #181818 } 
		.s12 { fill: #d04642 } 
		.s13 { fill: #c91f1f } 
		.s14 { fill: #eac71b } 
		.s15 { fill: #ba6315 } 
	</style>
	<g id="BACKGROUND">
		<path id="&lt;Path&gt;" class="s0" d="m925 795h-1000v-1000h1000z"/>
	</g>
	<g id="OBJECTS">
		<path id="&lt;Path&gt;" class="s1" d="m209.6 384.4c0 8.6-33.6 15.5-75 15.5-41.5 0-75.1-6.9-75.1-15.5 0-8.5 33.6-15.4 75.1-15.4 41.4 0 75 6.9 75 15.4z"/>
		<path id="&lt;Path&gt;" class="s1" d="m828.8 376.5c0 8.5-33.5 15.5-75 15.5-41.4 0-75-7-75-15.5 0-8.5 33.6-15.4 75-15.4 41.5 0 75 6.9 75 15.4z"/>
		<text id="404
" style="transform: matrix(2,0,0,2,92.73,187.023)" >
			<tspan x="45.1" y="88" class="t2">404
</tspan>
		</text>
		<text id="OOPS ... 
" style="transform: matrix(2,0,0,2,134.91,93.394)" >
			<tspan x="108.9" y="18" class="t3">OOPS ... 
</tspan>
		</text>
		<text id="Resource NOT FOUND" style="transform: matrix(2,0,0,2,134.91,404.434)" >
			<tspan x="18.6" y="18.5" class="t3">R</tspan><tspan  y="18.5" class="t3">e</tspan><tspan  y="18.5" class="t3">s</tspan><tspan  y="18.5" class="t3">o</tspan><tspan  y="18.5" class="t3">u</tspan><tspan  y="18.5" class="t3">r</tspan><tspan  y="18.5" class="t3">c</tspan><tspan  y="18.5" class="t3">e</tspan><tspan  y="18.5" class="t3"> </tspan><tspan  y="18.5" class="t4">N</tspan><tspan  y="18.5" class="t4">O</tspan><tspan  y="18.5" class="t4">T</tspan><tspan  y="18.5" class="t4"> </tspan><tspan  y="18.5" class="t4">F</tspan><tspan  y="18.5" class="t4">O</tspan><tspan  y="18.5" class="t4">U</tspan><tspan  y="18.5" class="t4">N</tspan><tspan  y="18.5" class="t4">D
</tspan>
		</text>
		<g id="&lt;Group&gt;">
			<path id="&lt;Path&gt;" class="s5" d="m25 276.5c0 0-5.9-3.7-7.4 1.2-1.5 4.9-1.5 12 0 12.5 1.5 0.6 10.1 0 10.1 0 0 0 3.1-10.8-2.7-13.7z"/>
			<g id="&lt;Group&gt;">
				<path id="&lt;Path&gt;" class="s6" d="m171.4 279.4c0 0-13.3-9.4-16.5 5.6 0 0 3.1 8.4 4.7 23.6q8.3 1.7 16.3 3.9c0-14.1-1.1-27-4.5-33.1z"/>
				<path id="&lt;Path&gt;" class="s7" d="m180.4 371.6l-8.2-3.6c0 0 3.7-29.8 3.7-55.5q-8-2.2-16.3-3.9c1.3 13.3 1.6 31.9-2.5 54.8 0 0-5.2 14 0.6 19.9 5.7 5.8 10.9 3.8 18.2 6.7 7.3 2.9 19.5 3.6 24.4-4.7 4.9-8.3-5.1-22.4-19.9-13.7z"/>
			</g>
			<g id="&lt;Group&gt;">
				<path id="&lt;Path&gt;" class="s6" d="m90.8 269.9c0 0-13.3-9.8-16.5 5.9 0 0 4 11.4 5.2 32q7.8-1.8 15.8-2.7c0-15-1.1-28.7-4.5-35.2z"/>
				<path id="&lt;Path&gt;" class="s7" d="m99.8 366.8l-8.2-3.8c0 0 3.7-31 3.7-57.9q-8 0.9-15.8 2.7c0.8 13.2 0.4 30.2-3 50.4 0 0-5.2 14.7 0.6 20.8 5.7 6.1 10.9 4 18.2 7.1 7.3 3 19.5 3.7 24.4-5 4.9-8.7-5.1-23.5-19.9-14.3z"/>
			</g>
			<path id="&lt;Path&gt;" class="s8" d="m149.6 121c5.6-10.1 7.8-22.4 3.3-33.7q-0.5-1-1.1-2c-22.6 7.9-56.2 28.8-72.8 84.4 28.3-7.3 54.1-21.8 70.6-48.7z"/>
			<path id="&lt;Path&gt;" class="s7" d="m183.8 71.8c0 1.4 0.3 2.6 0.3 2.6 0 0-0.1-1-0.3-2.6z"/>
			<path id="&lt;Path&gt;" class="s7" d="m193.2 89.1c0 0 13.1 1.1 11.5-4.5-1.6-5.5-6.8-4-6.8-4 0 0 13.5-10.8 5.5-15.5-8-4.7-13.2 10-13.2 10 0 0 0.7-6.8-3.5-7.1-2.4-0.2-2.9 2-2.9 3.8 0.2 1.6 0.3 2.6 0.3 2.6 0 0-0.3-1.2-0.3-2.6-0.9-6.8-4.3-24.9-14-23.2-11.9 2.2 5.6 28 5.6 28 0 0-3.5-2.9-4.8 0.1-1.3 3.1 4.2 3.9 4.2 3.9 0 0-9.6 0.1-23 4.7q0.6 1 1.1 2c4.5 11.3 2.3 23.6-3.3 33.7-16.5 26.9-42.3 41.4-70.6 48.7-2.9 9.8-5.4 20.7-7.1 32.8 0 0-8.4 68.7-6.4 72 4.1 6.8 50 15.3 101.3 13.4 4.8-0.2 9-3.4 10.7-8.1l24.5-63.4c8.1-21.1 12.7-43.6 13.1-66.4 0.5-24.4-3.7-51.2-21.9-60.9z"/>
			<g id="&lt;Group&gt;">
				<path id="&lt;Path&gt;" class="s7" d="m106.7 173.2c-2-4-6.6-7.4-16.6-5.9-14.2 2-25.7 21.5-31.9 34.3 18.9-5.8 36.2-14.8 48.5-28.4z"/>
				<path id="&lt;Path&gt;" class="s7" d="m63.1 214.3c7.9-13.8 23.5-24.2 40.9-24.2 1.4-1.3 2.9-3.5 4-7.2 0 0 0.9-5.3-1.3-9.7-12.3 13.6-29.6 22.6-48.5 28.4-3.1 6.4-4.8 11.2-4.8 11.2 0 0-7.7-0.9-9.4 9 0 0-0.9 4.9 2.1 6.7 0 0-29.4 42.8-23 59.8 0 0-1.1 5.2 3.8 7 0 0 3.3 7.1 8.1 4.6 0 0-3.9 9.8 1.2 11.8 5.1 1.9 10.8 1.2 12.8-7.2 0.5-2.1 1.5-9.3 3.4-19.2-4.5-23.8-2.8-48.8 10.7-71.1z"/>
				<path id="&lt;Path&gt;" class="s6" d="m63.1 214.3c-13.5 22.2-15.2 47.2-10.7 71 5.6-29 18.6-80.8 47.9-93.5 0 0 1.7 0 3.7-1.7-17.4 0-33 10.4-40.9 24.1z"/>
			</g>
			<path id="&lt;Path&gt;" class="s6" d="m78 173.3c0 0 17.8-13.9 28.7-0.1 0 0-7.3-9.6-28.7 0.1z"/>
			<path id="&lt;Path&gt;" class="s9" d="m169.8 48.6c0 0 11.2-4.7 14.2 25 0 0-1.9-6.3 2.7-5.6 4.6 0.7 3.5 7.1 3.5 7.1 0 0 3.2-13.6 12.2-10.5 9.1 3.2-1.6 13.9-4.5 16 0 0 6.3-1.1 6.9 4.7 0 0-3.5-5.7-8.5-3.1 0 0 11.3-13.7 5.1-14.9-6.3-1.3-11.5 10.6-11.5 10.6 0 0-0.9-8.1-3.5-7-2.7 1.2-2.3 6.8-2.3 6.8 0 0-5.2-28-14.3-29.1z"/>
			<path id="&lt;Path&gt;" class="s5" d="m60.3 288.2c-5.4-6.4-13.4-5.8-13.4-5.8-3.1 8.6-2.5 15.8-2.5 15.8 0 0-30.6 57.3-14.9 48.8 12-6.4 25.6-1.9 31.3 0.6 0.9 0.4 1.9 0.2 2.5-0.5-10.4-18.5-13.3-40.5-3-58.9z"/>
			<path id="&lt;Path&gt;" class="s10" d="m65.2 304.1c-0.1-7.7-2.2-12.7-4.9-15.9-10.3 18.4-7.4 40.4 3 58.9 0.3-0.3 0.6-0.8 0.6-1.3 0.5-6.9 1.5-24 1.3-41.7z"/>
			<path id="&lt;Path&gt;" class="s11" d="m160.3 149.1c-1.5 3.7-1.7 7.1-0.3 7.7 1.3 0.6 3.7-1.9 5.2-5.6 1.6-3.7 1.7-7.2 0.4-7.7-1.4-0.6-3.7 1.9-5.3 5.6z"/>
			<path id="&lt;Path&gt;" class="s11" d="m191.2 156.5c-1.3 3.8-1.2 7.3 0.2 7.8 1.4 0.5 3.6-2.2 4.8-6 1.3-3.8 1.2-7.3-0.2-7.8-1.4-0.5-3.5 2.2-4.8 6z"/>
			<path id="&lt;Path&gt;" class="s11" d="m184.3 134c-1.2 3.8-1.1 7.3 0.2 7.8 1.4 0.5 3.6-2.2 4.9-6 1.2-3.8 1.1-7.3-0.3-7.8-1.4-0.4-3.5 2.2-4.8 6z"/>
			<g id="&lt;Group&gt;">
				<path id="&lt;Path&gt;" class="s11" d="m174.1 188.6c-3.5-3.1-8.2-4.8-12.9-4.5q-0.1 0-0.2 0c-7.5 0.7-9.8-10.7 0.1-13.1 10-2.3 21.6 3.1 24.5 11.1 2.6 7-4.6 12.7-11.5 6.5z"/>
				<g id="&lt;Clip Group&gt;" clip-path="url(#cp1)">
					<path id="&lt;Path&gt;" class="s12" d="m181.3 191.5c-1.3 3.5-7.8 4.1-14.6 1.5-6.7-2.7-11.1-7.6-9.8-11 1.4-3.4 7.9-4 14.7-1.4 6.7 2.6 11.1 7.5 9.7 10.9z"/>
				</g>
			</g>
			<path id="&lt;Path&gt;" class="s7" d="m222.6 213.2c7.9-32.8-14.1-46.3-14.1-46.3l-2.4 6.9-10.5 30.4c-3.7 21.6-16.8 10.3-16.8 10.3-1-3.4-2.3 0-2.3 0 0 0 0-13.2 0-21.8 0-8.6-2.2-12.2-6.2-9.9-4.1 2.2-2.8 19.8-2.8 19.8-2.9-4.3-5.2 0.2-5.2 0.2 0 0-0.9-1.9-2.9-1.7-2 0.2-2.1 2.4-2.1 2.4-0.7-1.1-3.4-4.7-6 0-2.5 4.7 4.5 30.2 16 37.8 2.3 1.5 5.5 2.6 9.3 3.2 19-4.3 36.1-14.5 46-31.3z"/>
			<path id="&lt;Path&gt;" class="s6" d="m176.6 244.5c12 1.8 29.4-2 39.5-16.4 2.8-4 5-8.8 6.4-14.5q0.1-0.2 0.1-0.4c-9.9 16.8-27 27-46 31.3z"/>
			<path id="&lt;Path&gt;" class="s6" d="m198.3 218.7c0 0-11.4 3.8-21.8-4.2 0 0 3.7-32.5-4.3-32.4 0 0-6.9-1.5-4.8 19.3 0 0-3.2-2.1-5.1 1.4 0 0-3.5-4-5 0.4 0 0-4.9-4.5-6.5 1.1 0 0-6.3 32.9 29 40.6 0 0-29.2-7.1-28.1-39.8 0 0 0.3-2 2.4-2.1 2.1-0.1 3.3 2.4 3.3 2.4 0 0 0.7-3.2 2.3-2.9 1.6 0.4 2.7 2.7 2.7 2.7 0 0 0.6-3.7 3-3.1 2.4 0.6 2.5 3.4 2.5 3.4 0 0-1.3-23.4 4.1-22.5 5.3 0.8 3.7 33.3 3.7 33.3 0 0 12.2 10.2 22.6 2.4z"/>
			<path id="&lt;Path&gt;" class="s6" d="m213.3 173.2c0 0-4.2 24.2-14 45.5 0 0 13.6-21.8 14-45.5z"/>
			<path id="&lt;Path&gt;" class="s13" d="m63.9 346.6c0 7.1-8.7 12.8-19.4 12.8-10.8 0-19.5-5.7-19.5-12.8 0-7 8.7-12.7 19.5-12.7 10.7 0 19.4 5.7 19.4 12.7z"/>
			<path id="&lt;Path&gt;" class="s14" d="m41 347.1v26.4l6.1-25.5c0.2-0.9-0.3-1.9-1.1-2.3-0.8-0.4-1.9-0.8-3.2-0.7-1 0.2-1.8 1.1-1.8 2.1z"/>
			<path id="&lt;Path&gt;" class="s14" d="m46.4 369.6c0 2.8-2.2 5-5 5-2.7 0-4.9-2.2-4.9-5 0-2.7 2.2-4.9 4.9-4.9 2.8 0 5 2.2 5 4.9z"/>
		</g>
		<g id="&lt;Group&gt;">
			<path id="&lt;Path&gt;" class="s8" d="m658.7 139.1c-5.3-4-11.7-7.1-19.4-8.4-15.7-2.7-26.4 2.6-33 8.1 17.5 1.7 35 2 52.4 0.3z"/>
			<path id="&lt;Path&gt;" class="s7" d="m658.7 139.1c-17.4 1.7-34.9 1.4-52.4-0.3-5.8 5-8.4 10.1-8.4 10.1 0 0-14.1 9.7-13.6 14 0.6 4.3 3.2 2.8 3.2 2.8 0 4.2 2.2 3.3 2.2 3.3 0 0-3.2 16.5 1.2 16.7 4.5 0.2 7.8-13.3 7.8-13.3 0 0-0.2 3.3 5.2 2.3 5.3-1 4.8-13.2 4.8-13.2 5.5-15.8 21.9-13.8 21.9-13.8 15.3 1.3 26.8 15.1 34.9 30.3 3-8.7 4.9-17.8 5-26.8-3-4.2-6.9-8.5-11.8-12.1z"/>
			<path id="&lt;Path&gt;" class="s6" d="m679.4 167.8c0 0-2.6-8-8.9-16.6-0.1 9-2 18.1-5 26.8 10.6 19.7 15.4 41.7 15.4 41.7 2.6-32-1.5-51.9-1.5-51.9z"/>
			<path id="&lt;Path&gt;" class="s6" d="m796.5 165c0 0-6.3 16.3 1.5 36 0 0 2.5 0.3 6 2 1.7-10.7 4.4-21.2 8-31.5-4.5-2.8-9.6-5-15.5-6.5z"/>
			<path id="&lt;Path&gt;" class="s8" d="m818.3 176c4 22.6 10.6 45.9 21.6 66.7 0.9-21.1-2.2-50-21.6-66.7z"/>
			<path id="&lt;Path&gt;" class="s7" d="m818.3 176q-2.9-2.4-6.3-4.5c-3.6 10.3-6.3 20.8-8 31.5 9.4 4.7 25.8 19.8 16.3 67.1 0 0-9.7 7.4-9.7 13.3 0 5.8 3.2 7.4 3.2 7.4 0 0-2.5 5.8 2.5 5.8 5 0 9.2 1.1 10.6 1.8 1.4 0.7 5-0.9 7 0 1.9 1 6.5 1 8.2-0.5 1.7-1.6 0.5-22.7-5.3-29.2 0 0 2.5-11 3.1-26-11-20.8-17.6-44.1-21.6-66.7z"/>
			<g id="&lt;Group&gt;">
				<g id="&lt;Group&gt;">
					<path id="&lt;Path&gt;" class="s7" d="m713.1 362.1c0 0-2.4-3.9-4.7-1.4 0 0-16.7-10.9-24.7 7.2-7.9 18.1 27.8 18.9 36.6 10.4 8.7-8.5 11.5-8.8 11.5-8.8 0 0 3.5-5.7 0-8.2-2.7-1.8-9.8-28.8-11.3-57.6q-7.5 0.8-14.8 2.2z"/>
					<path id="&lt;Path&gt;" class="s6" d="m721.3 273.7c0 0-16.1-14.2-20.5-5.7l4.9 37.9q7.3-1.4 14.8-2.2c-0.6-10.1-0.4-20.4 0.8-30z"/>
				</g>
				<g id="&lt;Group&gt;">
					<path id="&lt;Path&gt;" class="s7" d="m775.3 353.8c0 0 2.4-3.9 4.7-1.4 0 0 16.7-10.9 24.7 7.2 7.9 18.1-27.7 18.9-36.5 10.4-8.8-8.5-11.6-8.8-11.6-8.8 0 0-3.5-5.7 0-8.2 2.7-1.8 9.8-28.8 11.4-57.6q7.4 0.8 14.7 2.2z"/>
					<path id="&lt;Path&gt;" class="s6" d="m767.1 265.4c0 0 16.2-14.2 20.6-5.7l-5 37.9q-7.3-1.4-14.7-2.2c0.5-10.1 0.4-20.4-0.9-30z"/>
				</g>
				<path id="&lt;Path&gt;" class="s7" d="m722.4 66.5c0.2 0.5 0.4 0.8 0.4 0.8 0 0-0.1-0.3-0.4-0.8z"/>
				<path id="&lt;Path&gt;" class="s8" d="m787.2 144.1q6.5 4 13.4 7.2c-3.8-27.9-12.2-54.4-29.6-70q-4.9-4.4-10.8-7.6c-8.5 23.8 5.5 57.5 27 70.4z"/>
				<path id="&lt;Path&gt;" class="s7" d="m787.2 144.1c-21.5-12.9-35.5-46.6-27-70.4-3-1.6-6.3-3-9.8-4.1 0 0 27.3-26.1 11.4-37.1-15.9-11-25.8 32.1-25.8 32.1 0 0-4.9-11-10.7-6.6-4.3 3.3-3.6 6.9-2.9 8.5 0.3 0.5 0.4 0.8 0.4 0.8 0 0-0.2-0.3-0.4-0.8-2.8-5.4-18.2-34-31.4-26.1-14.6 8.8 20 34.9 20 34.9 0 0-8.7 6.3-17.6 22.4-14.2 25.9-29.1 77.2-9.2 168.7 23 5 47.3 4.8 71.6-0.6 19.6-4.3 34.9-16.7 45.3-32.6 2-21.5 3.4-52.4-0.5-81.9q-6.9-3.2-13.4-7.2z"/>
				<path id="&lt;Path&gt;" class="s6" d="m755.8 265.8c-24.3 5.4-48.6 5.6-71.6 0.6q1 4.6 2.1 9.3c0 0 15.9 3.2 57.9 0 42-3.3 53.6-15.1 53.6-15.1 0 0 1.8-10.9 3.3-27.4-10.4 15.9-25.7 28.3-45.3 32.6z"/>
				<path id="&lt;Path&gt;" class="s11" d="m734.2 119.5c0.2 3.5 1.3 6.2 2.6 6.2 1.2 0 2.2-2.8 2-6.3-0.1-3.4-1.3-6.2-2.5-6.1-1.3 0-2.2 2.8-2.1 6.2z"/>
				<path id="&lt;Path&gt;" class="s11" d="m716.1 143.4c0.1 3.4 1.2 6.2 2.5 6.2 1.3-0.1 2.2-2.9 2.1-6.3-0.2-3.4-1.3-6.2-2.6-6.2-1.2 0.1-2.2 2.9-2 6.3z"/>
				<path id="&lt;Path&gt;" class="s11" d="m755.6 137.1c-1.2 0.1-2.2 2.9-2 6.3 0.1 3.4 1.2 6.2 2.5 6.2 1.3-0.1 2.2-2.9 2.1-6.3-0.2-3.4-1.3-6.2-2.6-6.2z"/>
				<g id="&lt;Group&gt;">
					<path id="&lt;Path&gt;" class="s15" d="m721.3 167.6c0 0 14.7-10.2 34.6-2.2 0 0-18.8-11.6-34.6 2.2z"/>
					<path id="&lt;Path&gt;" class="s15" d="m718.4 165c0 0 4.5 0.4 4.2 6.3 0 0-0.8-4.1-4.2-6.3z"/>
					<path id="&lt;Path&gt;" class="s15" d="m755.1 169.7c0 0 0.7-4.1 4.2-6.3 0 0-4.6 0.4-4.2 6.3z"/>
					<path id="&lt;Path&gt;" class="s15" d="m732 169.7c0 0 6.4-2.5 13.7 0 0 0-6.9-4.6-13.7 0z"/>
				</g>
				<path id="&lt;Path&gt;" class="s9" d="m691 40.4c0 0 14.1-11.3 31.8 26.9 0 0-14.2-26.6-31.8-26.9z"/>
				<path id="&lt;Path&gt;" class="s9" d="m764.8 49.8c3.7-6.7 2.7-21.2-9.5-19-12.2 2.2-19.3 33.8-19.3 33.8-5-9.1-8.4-9.4-12.1-5.3-3.8 4.1-1.1 8-1.1 8 0-5.1 3.8-6.6 3.8-6.6 7.5-0.7 10.3 12.6 10.3 12.6 0 0 7.9-36.6 18.6-39.1 10.8-2.6 9.3 15.6 9.3 15.6z"/>
			</g>
		</g>
	</g>
</svg>